<svg width="1920" height="557" viewBox="0 0 1920 557" fill="none" xmlns="http://www.w3.org/2000/svg">
<rect width="1921" height="546" fill="url(#paint0_linear_1529_3011)"/>
<mask id="mask0_1529_3011" style="mask-type:alpha" maskUnits="userSpaceOnUse" x="0" y="0" width="1921" height="557">
<rect width="1921" height="557" fill="url(#paint1_linear_1529_3011)"/>
</mask>
<g mask="url(#mask0_1529_3011)">
<path d="M-1 -88.5281C183.949 -11.7227 344.613 11.2971 470.768 14.1789C955.583 25.2795 1202.62 -254.612 1634.1 -211.385C1795.51 -195.212 1922.04 -139.905 2011.3 -88.5281" stroke="url(#paint2_linear_1529_3011)" stroke-width="3.45815" stroke-miterlimit="10"/>
<path d="M-1 -65.4969C183.949 11.3086 344.613 34.3284 470.768 37.2101C955.583 48.3108 1202.6 -231.58 1634.1 -188.353C1795.51 -172.181 1922.04 -116.873 2011.3 -65.4969" stroke="url(#paint3_linear_1529_3011)" stroke-width="3.45815" stroke-miterlimit="10"/>
<path d="M-1 -42.4542C183.949 34.3513 344.613 57.3711 470.768 60.2528C955.583 71.3535 1202.6 -208.538 1634.1 -165.311C1795.51 -149.138 1922.04 -93.8307 2011.3 -42.4542" stroke="url(#paint4_linear_1529_3011)" stroke-width="3.45815" stroke-miterlimit="10"/>
<path d="M-1 -19.4112C183.949 57.3943 344.613 80.414 470.768 83.2958C955.583 94.3965 1202.6 -185.495 1634.1 -142.268C1795.51 -126.095 1922.04 -70.7878 2011.3 -19.4112" stroke="url(#paint5_linear_1529_3011)" stroke-width="3.45815" stroke-miterlimit="10"/>
<path d="M-1 3.62003C183.949 80.4255 344.613 103.445 470.768 106.327C955.583 117.428 1202.6 -162.463 1634.1 -119.236C1795.51 -103.064 1922.04 -47.7565 2011.3 3.62003" stroke="url(#paint6_linear_1529_3011)" stroke-width="3.45815" stroke-miterlimit="10"/>
<path d="M-1 26.6625C183.949 103.468 344.613 126.488 470.768 129.37C955.583 140.47 1202.6 -139.421 1634.1 -96.194C1795.51 -80.0214 1922.04 -24.714 2011.3 26.6625" stroke="url(#paint7_linear_1529_3011)" stroke-width="3.45815" stroke-miterlimit="10"/>
<path d="M-1 49.7057C183.949 126.511 344.613 149.531 470.768 152.413C955.583 163.513 1202.6 -116.378 1634.1 -73.1508C1795.51 -56.9782 1922.04 -1.67082 2011.3 49.7057" stroke="url(#paint8_linear_1529_3011)" stroke-width="3.45815" stroke-miterlimit="10"/>
<path d="M-1 72.737C183.949 149.542 344.613 172.562 470.768 175.444C955.583 186.545 1202.6 -93.3464 1634.1 -50.1195C1795.51 -33.9469 1922.04 21.3604 2011.3 72.737" stroke="url(#paint9_linear_1529_3011)" stroke-width="3.45815" stroke-miterlimit="10"/>
<path d="M-1 95.7795C183.949 172.585 344.613 195.605 470.768 198.487C955.583 209.587 1202.6 -70.3039 1634.1 -27.077C1795.51 -10.9044 1922.04 44.4029 2011.3 95.7795" stroke="url(#paint10_linear_1529_3011)" stroke-width="3.45815" stroke-miterlimit="10"/>
<path d="M-1 118.811C183.949 195.616 344.613 218.636 470.768 221.518C955.583 232.618 1202.6 -47.2726 1634.1 -4.04579C1795.51 12.1268 1922.04 67.4341 2011.3 118.811" stroke="url(#paint11_linear_1529_3011)" stroke-width="3.45815" stroke-miterlimit="10"/>
<path d="M-1 141.854C183.949 218.659 344.613 241.679 470.768 244.561C955.583 255.661 1202.6 -24.2297 1634.1 18.9972C1795.51 35.1698 1922.04 90.4771 2011.3 141.854" stroke="url(#paint12_linear_1529_3011)" stroke-width="3.45815" stroke-miterlimit="10"/>
<path d="M-1 164.896C183.949 241.702 344.613 264.721 470.768 267.603C955.583 278.704 1202.6 -1.1872 1634.1 42.0397C1795.51 58.2123 1922.04 113.52 2011.3 164.896" stroke="url(#paint13_linear_1529_3011)" stroke-width="3.45815" stroke-miterlimit="10"/>
<path d="M-1 187.927C183.949 264.733 344.613 287.753 470.768 290.634C955.583 301.735 1202.6 21.844 1634.1 65.0709C1795.51 81.2435 1922.04 136.551 2011.3 187.927" stroke="url(#paint14_linear_1529_3011)" stroke-width="3.45815" stroke-miterlimit="10"/>
<path d="M-1 210.97C183.949 287.776 344.613 310.796 470.768 313.677C955.583 324.778 1202.6 44.887 1634.1 88.1139C1795.51 104.286 1922.04 159.594 2011.3 210.97" stroke="url(#paint15_linear_1529_3011)" stroke-width="3.45815" stroke-miterlimit="10"/>
<path d="M-1 234.002C183.949 310.807 344.613 333.827 470.768 336.709C955.583 347.809 1202.6 67.9183 1634.1 111.145C1795.51 127.318 1922.04 182.625 2011.3 234.002" stroke="url(#paint16_linear_1529_3011)" stroke-width="3.45815" stroke-miterlimit="10"/>
<path d="M-1 257.045C183.949 333.85 344.613 356.87 470.768 359.752C955.583 370.853 1202.6 90.9615 1634.1 134.188C1795.51 150.361 1922.04 205.668 2011.3 257.045" stroke="url(#paint17_linear_1529_3011)" stroke-width="3.45815" stroke-miterlimit="10"/>
<path d="M-1 280.087C183.949 356.893 344.613 379.913 470.768 382.794C955.583 393.895 1202.6 114.004 1634.1 157.231C1795.51 173.403 1922.04 228.711 2011.3 280.087" stroke="url(#paint18_linear_1529_3011)" stroke-width="3.45815" stroke-miterlimit="10"/>
<path d="M-1 303.119C183.949 379.924 344.613 402.944 470.768 405.826C955.583 416.926 1202.6 137.035 1634.1 180.262C1795.51 196.435 1922.04 251.742 2011.3 303.119" stroke="url(#paint19_linear_1529_3011)" stroke-width="3.45815" stroke-miterlimit="10"/>
<path d="M-1 326.162C183.949 402.967 344.613 425.987 470.768 428.869C955.583 439.969 1202.6 160.078 1634.1 203.305C1795.51 219.478 1922.04 274.785 2011.3 326.162" stroke="url(#paint20_linear_1529_3011)" stroke-width="3.45815" stroke-miterlimit="10"/>
<path d="M-1 349.193C183.949 425.998 344.613 449.018 470.768 451.9C955.583 463 1202.6 183.109 1634.1 226.336C1795.51 242.509 1922.04 297.816 2011.3 349.193" stroke="url(#paint21_linear_1529_3011)" stroke-width="3.45815" stroke-miterlimit="10"/>
<path d="M-1 372.236C183.949 449.041 344.613 472.061 470.768 474.943C955.583 486.043 1202.6 206.152 1634.1 249.379C1795.51 265.552 1922.04 320.859 2011.3 372.236" stroke="url(#paint22_linear_1529_3011)" stroke-width="3.45815" stroke-miterlimit="10"/>
<path d="M-1 395.279C183.949 472.084 344.613 495.104 470.768 497.985C955.583 509.086 1202.6 229.195 1634.1 272.422C1795.51 288.595 1922.04 343.902 2011.3 395.279" stroke="url(#paint23_linear_1529_3011)" stroke-width="3.45815" stroke-miterlimit="10"/>
<path d="M-1 418.31C183.949 495.115 344.613 518.135 470.768 521.017C955.583 532.117 1202.6 252.226 1634.1 295.453C1795.51 311.626 1922.04 366.933 2011.3 418.31" stroke="url(#paint24_linear_1529_3011)" stroke-width="3.45815" stroke-miterlimit="10"/>
<path d="M-1 441.352C183.949 518.158 344.613 541.177 470.768 544.059C955.583 555.16 1202.6 275.269 1634.1 318.496C1795.51 334.668 1922.04 389.976 2011.3 441.352" stroke="url(#paint25_linear_1529_3011)" stroke-width="3.45815" stroke-miterlimit="10"/>
<path d="M-1 464.395C183.949 541.201 344.613 564.22 470.768 567.102C955.583 578.203 1202.6 298.312 1634.1 341.539C1795.51 357.711 1922.04 413.019 2011.3 464.395" stroke="url(#paint26_linear_1529_3011)" stroke-width="3.45815" stroke-miterlimit="10"/>
<path d="M-1 487.426C183.949 564.232 344.613 587.252 470.768 590.133C955.583 601.234 1202.6 321.343 1634.1 364.57C1795.51 380.743 1922.04 436.05 2011.3 487.426" stroke="url(#paint27_linear_1529_3011)" stroke-width="3.45815" stroke-miterlimit="10"/>
<path d="M-1 510.469C183.949 587.274 344.613 610.294 470.768 613.176C955.583 624.277 1202.6 344.386 1634.1 387.612C1795.51 403.785 1922.04 459.092 2011.3 510.469" stroke="url(#paint28_linear_1529_3011)" stroke-width="3.45815" stroke-miterlimit="10"/>
<path d="M-1 533.5C183.949 610.306 344.613 633.325 470.768 636.207C955.583 647.308 1202.6 367.417 1634.1 410.644C1795.51 426.816 1922.04 482.124 2011.3 533.5" stroke="url(#paint29_linear_1529_3011)" stroke-width="3.45815" stroke-miterlimit="10"/>
<path d="M-1 556.543C183.949 633.349 344.613 656.368 470.768 659.25C955.583 670.351 1202.6 390.46 1634.1 433.687C1795.51 449.859 1922.04 505.167 2011.3 556.543" stroke="url(#paint30_linear_1529_3011)" stroke-width="3.45815" stroke-miterlimit="10"/>
<path d="M-1 579.586C183.949 656.392 344.613 679.411 470.768 682.293C955.583 693.394 1202.6 413.503 1634.1 456.73C1795.51 472.902 1922.04 528.21 2011.3 579.586" stroke="url(#paint31_linear_1529_3011)" stroke-width="3.45815" stroke-miterlimit="10"/>
</g>
<defs>
<linearGradient id="paint0_linear_1529_3011" x1="-6.71229" y1="-2.98319" x2="1922.09" y2="542.08" gradientUnits="userSpaceOnUse">
<stop stop-color="#1591C1"/>
<stop offset="1" stop-color="#17508E"/>
</linearGradient>
<linearGradient id="paint1_linear_1529_3011" x1="-6.71229" y1="-3.0433" x2="1927.69" y2="532.806" gradientUnits="userSpaceOnUse">
<stop stop-color="#1591C1"/>
<stop offset="1" stop-color="#17508E"/>
</linearGradient>
<linearGradient id="paint2_linear_1529_3011" x1="2016.37" y1="11.1618" x2="1302.06" y2="-1073.81" gradientUnits="userSpaceOnUse">
<stop stop-color="#27A8DC" stop-opacity="0"/>
<stop offset="0.2" stop-color="#27A8DC" stop-opacity="0.1"/>
<stop offset="0.48" stop-color="#33B5C3" stop-opacity="0.2"/>
<stop offset="0.61" stop-color="#33B5C3" stop-opacity="0"/>
<stop offset="0.8" stop-color="#33B5C3" stop-opacity="0.2"/>
<stop offset="1" stop-color="#33B5C3" stop-opacity="0"/>
</linearGradient>
<linearGradient id="paint3_linear_1529_3011" x1="2016.37" y1="34.193" x2="1302.06" y2="-1050.78" gradientUnits="userSpaceOnUse">
<stop stop-color="#27A8DC" stop-opacity="0"/>
<stop offset="0.2" stop-color="#27A8DC" stop-opacity="0.1"/>
<stop offset="0.48" stop-color="#33B5C3" stop-opacity="0.2"/>
<stop offset="0.61" stop-color="#33B5C3" stop-opacity="0"/>
<stop offset="0.8" stop-color="#33B5C3" stop-opacity="0.2"/>
<stop offset="1" stop-color="#33B5C3" stop-opacity="0"/>
</linearGradient>
<linearGradient id="paint4_linear_1529_3011" x1="2016.37" y1="57.2357" x2="1302.06" y2="-1027.74" gradientUnits="userSpaceOnUse">
<stop stop-color="#27A8DC" stop-opacity="0"/>
<stop offset="0.2" stop-color="#27A8DC" stop-opacity="0.1"/>
<stop offset="0.48" stop-color="#33B5C3" stop-opacity="0.2"/>
<stop offset="0.61" stop-color="#33B5C3" stop-opacity="0"/>
<stop offset="0.8" stop-color="#33B5C3" stop-opacity="0.2"/>
<stop offset="1" stop-color="#33B5C3" stop-opacity="0"/>
</linearGradient>
<linearGradient id="paint5_linear_1529_3011" x1="2016.37" y1="80.2787" x2="1302.06" y2="-1004.7" gradientUnits="userSpaceOnUse">
<stop stop-color="#27A8DC" stop-opacity="0"/>
<stop offset="0.2" stop-color="#27A8DC" stop-opacity="0.1"/>
<stop offset="0.48" stop-color="#33B5C3" stop-opacity="0.2"/>
<stop offset="0.61" stop-color="#33B5C3" stop-opacity="0"/>
<stop offset="0.8" stop-color="#33B5C3" stop-opacity="0.2"/>
<stop offset="1" stop-color="#33B5C3" stop-opacity="0"/>
</linearGradient>
<linearGradient id="paint6_linear_1529_3011" x1="2016.37" y1="103.31" x2="1302.06" y2="-981.666" gradientUnits="userSpaceOnUse">
<stop stop-color="#27A8DC" stop-opacity="0"/>
<stop offset="0.2" stop-color="#27A8DC" stop-opacity="0.1"/>
<stop offset="0.48" stop-color="#33B5C3" stop-opacity="0.2"/>
<stop offset="0.61" stop-color="#33B5C3" stop-opacity="0"/>
<stop offset="0.8" stop-color="#33B5C3" stop-opacity="0.2"/>
<stop offset="1" stop-color="#33B5C3" stop-opacity="0"/>
</linearGradient>
<linearGradient id="paint7_linear_1529_3011" x1="2016.37" y1="126.352" x2="1302.06" y2="-958.624" gradientUnits="userSpaceOnUse">
<stop stop-color="#27A8DC" stop-opacity="0"/>
<stop offset="0.2" stop-color="#27A8DC" stop-opacity="0.1"/>
<stop offset="0.48" stop-color="#33B5C3" stop-opacity="0.2"/>
<stop offset="0.61" stop-color="#33B5C3" stop-opacity="0"/>
<stop offset="0.8" stop-color="#33B5C3" stop-opacity="0.2"/>
<stop offset="1" stop-color="#33B5C3" stop-opacity="0"/>
</linearGradient>
<linearGradient id="paint8_linear_1529_3011" x1="2016.37" y1="149.396" x2="1302.06" y2="-935.581" gradientUnits="userSpaceOnUse">
<stop stop-color="#27A8DC" stop-opacity="0"/>
<stop offset="0.2" stop-color="#27A8DC" stop-opacity="0.1"/>
<stop offset="0.48" stop-color="#33B5C3" stop-opacity="0.2"/>
<stop offset="0.61" stop-color="#33B5C3" stop-opacity="0"/>
<stop offset="0.8" stop-color="#33B5C3" stop-opacity="0.2"/>
<stop offset="1" stop-color="#33B5C3" stop-opacity="0"/>
</linearGradient>
<linearGradient id="paint9_linear_1529_3011" x1="2016.37" y1="172.427" x2="1302.06" y2="-912.549" gradientUnits="userSpaceOnUse">
<stop stop-color="#27A8DC" stop-opacity="0"/>
<stop offset="0.2" stop-color="#27A8DC" stop-opacity="0.1"/>
<stop offset="0.48" stop-color="#33B5C3" stop-opacity="0.2"/>
<stop offset="0.61" stop-color="#33B5C3" stop-opacity="0"/>
<stop offset="0.8" stop-color="#33B5C3" stop-opacity="0.2"/>
<stop offset="1" stop-color="#33B5C3" stop-opacity="0"/>
</linearGradient>
<linearGradient id="paint10_linear_1529_3011" x1="2016.37" y1="195.469" x2="1302.06" y2="-889.507" gradientUnits="userSpaceOnUse">
<stop stop-color="#27A8DC" stop-opacity="0"/>
<stop offset="0.2" stop-color="#27A8DC" stop-opacity="0.1"/>
<stop offset="0.48" stop-color="#33B5C3" stop-opacity="0.2"/>
<stop offset="0.61" stop-color="#33B5C3" stop-opacity="0"/>
<stop offset="0.8" stop-color="#33B5C3" stop-opacity="0.2"/>
<stop offset="1" stop-color="#33B5C3" stop-opacity="0"/>
</linearGradient>
<linearGradient id="paint11_linear_1529_3011" x1="2016.37" y1="218.501" x2="1302.06" y2="-866.476" gradientUnits="userSpaceOnUse">
<stop stop-color="#27A8DC" stop-opacity="0"/>
<stop offset="0.2" stop-color="#27A8DC" stop-opacity="0.1"/>
<stop offset="0.48" stop-color="#33B5C3" stop-opacity="0.2"/>
<stop offset="0.61" stop-color="#33B5C3" stop-opacity="0"/>
<stop offset="0.8" stop-color="#33B5C3" stop-opacity="0.2"/>
<stop offset="1" stop-color="#33B5C3" stop-opacity="0"/>
</linearGradient>
<linearGradient id="paint12_linear_1529_3011" x1="2016.37" y1="241.544" x2="1302.06" y2="-843.433" gradientUnits="userSpaceOnUse">
<stop stop-color="#27A8DC" stop-opacity="0"/>
<stop offset="0.2" stop-color="#27A8DC" stop-opacity="0.1"/>
<stop offset="0.48" stop-color="#33B5C3" stop-opacity="0.2"/>
<stop offset="0.61" stop-color="#33B5C3" stop-opacity="0"/>
<stop offset="0.8" stop-color="#33B5C3" stop-opacity="0.2"/>
<stop offset="1" stop-color="#33B5C3" stop-opacity="0"/>
</linearGradient>
<linearGradient id="paint13_linear_1529_3011" x1="2016.37" y1="264.586" x2="1302.06" y2="-820.39" gradientUnits="userSpaceOnUse">
<stop stop-color="#27A8DC" stop-opacity="0"/>
<stop offset="0.2" stop-color="#27A8DC" stop-opacity="0.1"/>
<stop offset="0.48" stop-color="#33B5C3" stop-opacity="0.2"/>
<stop offset="0.61" stop-color="#33B5C3" stop-opacity="0"/>
<stop offset="0.8" stop-color="#33B5C3" stop-opacity="0.2"/>
<stop offset="1" stop-color="#33B5C3" stop-opacity="0"/>
</linearGradient>
<linearGradient id="paint14_linear_1529_3011" x1="2016.37" y1="287.617" x2="1302.06" y2="-797.359" gradientUnits="userSpaceOnUse">
<stop stop-color="#27A8DC" stop-opacity="0"/>
<stop offset="0.2" stop-color="#27A8DC" stop-opacity="0.1"/>
<stop offset="0.48" stop-color="#33B5C3" stop-opacity="0.2"/>
<stop offset="0.61" stop-color="#33B5C3" stop-opacity="0"/>
<stop offset="0.8" stop-color="#33B5C3" stop-opacity="0.2"/>
<stop offset="1" stop-color="#33B5C3" stop-opacity="0"/>
</linearGradient>
<linearGradient id="paint15_linear_1529_3011" x1="2016.37" y1="310.66" x2="1302.06" y2="-774.316" gradientUnits="userSpaceOnUse">
<stop stop-color="#27A8DC" stop-opacity="0"/>
<stop offset="0.2" stop-color="#27A8DC" stop-opacity="0.1"/>
<stop offset="0.48" stop-color="#33B5C3" stop-opacity="0.2"/>
<stop offset="0.61" stop-color="#33B5C3" stop-opacity="0"/>
<stop offset="0.8" stop-color="#33B5C3" stop-opacity="0.2"/>
<stop offset="1" stop-color="#33B5C3" stop-opacity="0"/>
</linearGradient>
<linearGradient id="paint16_linear_1529_3011" x1="2016.37" y1="333.692" x2="1302.06" y2="-751.285" gradientUnits="userSpaceOnUse">
<stop stop-color="#27A8DC" stop-opacity="0"/>
<stop offset="0.2" stop-color="#27A8DC" stop-opacity="0.1"/>
<stop offset="0.48" stop-color="#33B5C3" stop-opacity="0.2"/>
<stop offset="0.61" stop-color="#33B5C3" stop-opacity="0"/>
<stop offset="0.8" stop-color="#33B5C3" stop-opacity="0.2"/>
<stop offset="1" stop-color="#33B5C3" stop-opacity="0"/>
</linearGradient>
<linearGradient id="paint17_linear_1529_3011" x1="2016.37" y1="356.735" x2="1302.06" y2="-728.242" gradientUnits="userSpaceOnUse">
<stop stop-color="#27A8DC" stop-opacity="0"/>
<stop offset="0.2" stop-color="#27A8DC" stop-opacity="0.1"/>
<stop offset="0.48" stop-color="#33B5C3" stop-opacity="0.2"/>
<stop offset="0.61" stop-color="#33B5C3" stop-opacity="0"/>
<stop offset="0.8" stop-color="#33B5C3" stop-opacity="0.2"/>
<stop offset="1" stop-color="#33B5C3" stop-opacity="0"/>
</linearGradient>
<linearGradient id="paint18_linear_1529_3011" x1="2016.37" y1="379.777" x2="1302.06" y2="-705.199" gradientUnits="userSpaceOnUse">
<stop stop-color="#27A8DC" stop-opacity="0"/>
<stop offset="0.2" stop-color="#27A8DC" stop-opacity="0.1"/>
<stop offset="0.48" stop-color="#33B5C3" stop-opacity="0.2"/>
<stop offset="0.61" stop-color="#33B5C3" stop-opacity="0"/>
<stop offset="0.8" stop-color="#33B5C3" stop-opacity="0.2"/>
<stop offset="1" stop-color="#33B5C3" stop-opacity="0"/>
</linearGradient>
<linearGradient id="paint19_linear_1529_3011" x1="2016.37" y1="402.808" x2="1302.06" y2="-682.168" gradientUnits="userSpaceOnUse">
<stop stop-color="#27A8DC" stop-opacity="0"/>
<stop offset="0.2" stop-color="#27A8DC" stop-opacity="0.1"/>
<stop offset="0.48" stop-color="#33B5C3" stop-opacity="0.2"/>
<stop offset="0.61" stop-color="#33B5C3" stop-opacity="0"/>
<stop offset="0.8" stop-color="#33B5C3" stop-opacity="0.2"/>
<stop offset="1" stop-color="#33B5C3" stop-opacity="0"/>
</linearGradient>
<linearGradient id="paint20_linear_1529_3011" x1="2016.37" y1="425.851" x2="1302.06" y2="-659.125" gradientUnits="userSpaceOnUse">
<stop stop-color="#27A8DC" stop-opacity="0"/>
<stop offset="0.2" stop-color="#27A8DC" stop-opacity="0.1"/>
<stop offset="0.48" stop-color="#33B5C3" stop-opacity="0.2"/>
<stop offset="0.61" stop-color="#33B5C3" stop-opacity="0"/>
<stop offset="0.8" stop-color="#33B5C3" stop-opacity="0.2"/>
<stop offset="1" stop-color="#33B5C3" stop-opacity="0"/>
</linearGradient>
<linearGradient id="paint21_linear_1529_3011" x1="2016.37" y1="448.883" x2="1302.06" y2="-636.094" gradientUnits="userSpaceOnUse">
<stop stop-color="#27A8DC" stop-opacity="0"/>
<stop offset="0.2" stop-color="#27A8DC" stop-opacity="0.1"/>
<stop offset="0.48" stop-color="#33B5C3" stop-opacity="0.2"/>
<stop offset="0.61" stop-color="#33B5C3" stop-opacity="0"/>
<stop offset="0.8" stop-color="#33B5C3" stop-opacity="0.2"/>
<stop offset="1" stop-color="#33B5C3" stop-opacity="0"/>
</linearGradient>
<linearGradient id="paint22_linear_1529_3011" x1="2016.37" y1="471.925" x2="1302.06" y2="-613.051" gradientUnits="userSpaceOnUse">
<stop stop-color="#27A8DC" stop-opacity="0"/>
<stop offset="0.2" stop-color="#27A8DC" stop-opacity="0.1"/>
<stop offset="0.48" stop-color="#33B5C3" stop-opacity="0.2"/>
<stop offset="0.61" stop-color="#33B5C3" stop-opacity="0"/>
<stop offset="0.8" stop-color="#33B5C3" stop-opacity="0.2"/>
<stop offset="1" stop-color="#33B5C3" stop-opacity="0"/>
</linearGradient>
<linearGradient id="paint23_linear_1529_3011" x1="2016.37" y1="494.968" x2="1302.06" y2="-590.008" gradientUnits="userSpaceOnUse">
<stop stop-color="#27A8DC" stop-opacity="0"/>
<stop offset="0.2" stop-color="#27A8DC" stop-opacity="0.1"/>
<stop offset="0.48" stop-color="#33B5C3" stop-opacity="0.2"/>
<stop offset="0.61" stop-color="#33B5C3" stop-opacity="0"/>
<stop offset="0.8" stop-color="#33B5C3" stop-opacity="0.2"/>
<stop offset="1" stop-color="#33B5C3" stop-opacity="0"/>
</linearGradient>
<linearGradient id="paint24_linear_1529_3011" x1="2016.37" y1="518" x2="1302.06" y2="-566.977" gradientUnits="userSpaceOnUse">
<stop stop-color="#27A8DC" stop-opacity="0"/>
<stop offset="0.2" stop-color="#27A8DC" stop-opacity="0.1"/>
<stop offset="0.48" stop-color="#33B5C3" stop-opacity="0.2"/>
<stop offset="0.61" stop-color="#33B5C3" stop-opacity="0"/>
<stop offset="0.8" stop-color="#33B5C3" stop-opacity="0.2"/>
<stop offset="1" stop-color="#33B5C3" stop-opacity="0"/>
</linearGradient>
<linearGradient id="paint25_linear_1529_3011" x1="2016.37" y1="541.042" x2="1302.06" y2="-543.934" gradientUnits="userSpaceOnUse">
<stop stop-color="#27A8DC" stop-opacity="0"/>
<stop offset="0.2" stop-color="#27A8DC" stop-opacity="0.1"/>
<stop offset="0.48" stop-color="#33B5C3" stop-opacity="0.2"/>
<stop offset="0.61" stop-color="#33B5C3" stop-opacity="0"/>
<stop offset="0.8" stop-color="#33B5C3" stop-opacity="0.2"/>
<stop offset="1" stop-color="#33B5C3" stop-opacity="0"/>
</linearGradient>
<linearGradient id="paint26_linear_1529_3011" x1="2016.37" y1="564.085" x2="1302.06" y2="-520.891" gradientUnits="userSpaceOnUse">
<stop stop-color="#27A8DC" stop-opacity="0"/>
<stop offset="0.2" stop-color="#27A8DC" stop-opacity="0.1"/>
<stop offset="0.48" stop-color="#33B5C3" stop-opacity="0.2"/>
<stop offset="0.61" stop-color="#33B5C3" stop-opacity="0"/>
<stop offset="0.8" stop-color="#33B5C3" stop-opacity="0.2"/>
<stop offset="1" stop-color="#33B5C3" stop-opacity="0"/>
</linearGradient>
<linearGradient id="paint27_linear_1529_3011" x1="2016.37" y1="587.116" x2="1302.06" y2="-497.86" gradientUnits="userSpaceOnUse">
<stop stop-color="#27A8DC" stop-opacity="0"/>
<stop offset="0.2" stop-color="#27A8DC" stop-opacity="0.1"/>
<stop offset="0.48" stop-color="#33B5C3" stop-opacity="0.2"/>
<stop offset="0.61" stop-color="#33B5C3" stop-opacity="0"/>
<stop offset="0.8" stop-color="#33B5C3" stop-opacity="0.2"/>
<stop offset="1" stop-color="#33B5C3" stop-opacity="0"/>
</linearGradient>
<linearGradient id="paint28_linear_1529_3011" x1="2016.37" y1="610.159" x2="1302.06" y2="-474.817" gradientUnits="userSpaceOnUse">
<stop stop-color="#27A8DC" stop-opacity="0"/>
<stop offset="0.2" stop-color="#27A8DC" stop-opacity="0.1"/>
<stop offset="0.48" stop-color="#33B5C3" stop-opacity="0.2"/>
<stop offset="0.61" stop-color="#33B5C3" stop-opacity="0"/>
<stop offset="0.8" stop-color="#33B5C3" stop-opacity="0.2"/>
<stop offset="1" stop-color="#33B5C3" stop-opacity="0"/>
</linearGradient>
<linearGradient id="paint29_linear_1529_3011" x1="2016.37" y1="633.19" x2="1302.06" y2="-451.786" gradientUnits="userSpaceOnUse">
<stop stop-color="#27A8DC" stop-opacity="0"/>
<stop offset="0.2" stop-color="#27A8DC" stop-opacity="0.1"/>
<stop offset="0.48" stop-color="#33B5C3" stop-opacity="0.2"/>
<stop offset="0.61" stop-color="#33B5C3" stop-opacity="0"/>
<stop offset="0.8" stop-color="#33B5C3" stop-opacity="0.2"/>
<stop offset="1" stop-color="#33B5C3" stop-opacity="0"/>
</linearGradient>
<linearGradient id="paint30_linear_1529_3011" x1="2016.37" y1="656.233" x2="1302.06" y2="-428.743" gradientUnits="userSpaceOnUse">
<stop stop-color="#27A8DC" stop-opacity="0"/>
<stop offset="0.2" stop-color="#27A8DC" stop-opacity="0.1"/>
<stop offset="0.48" stop-color="#33B5C3" stop-opacity="0.2"/>
<stop offset="0.61" stop-color="#33B5C3" stop-opacity="0"/>
<stop offset="0.8" stop-color="#33B5C3" stop-opacity="0.2"/>
<stop offset="1" stop-color="#33B5C3" stop-opacity="0"/>
</linearGradient>
<linearGradient id="paint31_linear_1529_3011" x1="2016.37" y1="679.276" x2="1302.06" y2="-405.7" gradientUnits="userSpaceOnUse">
<stop stop-color="#27A8DC" stop-opacity="0"/>
<stop offset="0.2" stop-color="#27A8DC" stop-opacity="0.1"/>
<stop offset="0.48" stop-color="#33B5C3" stop-opacity="0.2"/>
<stop offset="0.61" stop-color="#33B5C3" stop-opacity="0"/>
<stop offset="0.8" stop-color="#33B5C3" stop-opacity="0.2"/>
<stop offset="1" stop-color="#33B5C3" stop-opacity="0"/>
</linearGradient>
</defs>
</svg>
