<svg width="61" height="64" viewBox="0 0 61 64" fill="none" xmlns="http://www.w3.org/2000/svg">
<path d="M2.73384 38.3343H8.50812C9.6032 38.3343 10.4914 39.2225 10.4914 40.3176V60.4992C10.4914 61.5943 9.6032 62.4825 8.50812 62.4825H2.73384C2.18702 62.4825 1.74219 62.0377 1.74219 61.4909V39.3259C1.74219 38.7791 2.18702 38.3343 2.73384 38.3343Z" stroke="white" stroke-width="2" stroke-linecap="round" stroke-linejoin="round"/>
<path d="M13.9197 37.8599C16.974 35.4204 18.3127 30.6208 18.7193 28.2804C18.9275 27.0607 19.9787 26.2575 21.0894 26.2575C21.5059 26.2575 21.9323 26.3665 22.3289 26.6045C24.1338 27.6854 25.1452 29.7084 24.9172 31.8008L24.2032 38.2367L30.1333 37.7309C34.0999 37.3938 37.055 41.3108 35.6072 45.0196L30.6589 57.7228C29.8556 59.7854 27.8624 61.144 25.6411 61.144H14.4155" stroke="white" stroke-width="2" stroke-linecap="round" stroke-linejoin="round"/>
<path d="M28.5176 25.7913L32.4842 29.758L40.4175 21.8247" stroke="white" stroke-width="2" stroke-linecap="round" stroke-linejoin="round"/>
<path d="M12.6012 33.4666C12.6111 32.8518 12.5813 32.2469 12.4326 31.6916C11.907 29.7281 9.67578 27.9233 9.67578 25.7912C9.67578 23.6591 11.907 21.8543 12.4326 19.8908C12.978 17.8579 11.9665 15.1805 12.9978 13.3955C14.049 11.5907 16.8851 11.1345 18.3429 9.66684C19.8105 8.20911 20.2667 5.37297 22.0715 4.32181C23.8565 3.29048 26.534 4.30197 28.5669 3.75656C30.5303 3.23098 32.3352 0.999756 34.4672 0.999756C36.5993 0.999756 38.4041 3.23098 40.3676 3.75656C42.4005 4.30197 45.0779 3.29048 46.8629 4.32181C48.6677 5.37297 49.1239 8.20911 50.5916 9.66684C52.0493 11.1345 54.8854 11.5907 55.9366 13.3955C56.9679 15.1805 55.9564 17.8579 56.5018 19.8908C57.0274 21.8543 59.2587 23.6591 59.2587 25.7912C59.2587 27.9233 57.0274 29.7281 56.5018 31.6916C55.9564 33.7244 56.9679 36.4019 55.9366 38.1869C54.8854 39.9917 52.0493 40.4479 50.5916 41.9155C49.1239 43.3733 48.6677 46.2094 46.8629 47.2606C45.0779 48.2919 42.4005 47.2804 40.3676 47.8258C39.6932 48.0043 39.0487 48.3811 38.3942 48.8076" stroke="white" stroke-width="2" stroke-linecap="round" stroke-linejoin="round"/>
<path d="M39.6635 40.7851C45.8812 38.6332 50.3337 32.7328 50.3337 25.7912C50.3337 17.0249 43.2335 9.92468 34.4672 9.92468C26.762 9.92468 20.346 15.4085 18.8982 22.6774" stroke="white" stroke-width="2" stroke-linecap="round" stroke-linejoin="round"/>
</svg>
