<svg width="58" height="54" viewBox="0 0 58 54" fill="none" xmlns="http://www.w3.org/2000/svg">
<path d="M18.6875 28.875H1.8125V52.3125H18.6875V28.875Z" stroke="white" stroke-width="2" stroke-linecap="round" stroke-linejoin="round"/>
<path d="M7.4375 45.75V43.875" stroke="white" stroke-width="2" stroke-linecap="round" stroke-linejoin="round"/>
<path d="M7.4375 39.1875V37.3125" stroke="white" stroke-width="2" stroke-linecap="round" stroke-linejoin="round"/>
<path d="M8.375 7.3125C8.375 5.75859 9.63359 4.5 11.1875 4.5H12.125C13.6789 4.5 14.9375 3.24141 14.9375 1.6875" stroke="white" stroke-width="2" stroke-linecap="round" stroke-linejoin="round"/>
<path d="M4.625 28.875L6.5 11.0625H12.125L14 28.875" stroke="white" stroke-width="2" stroke-linecap="round" stroke-linejoin="round"/>
<path d="M12.6219 15.75H10.25" stroke="white" stroke-width="2" stroke-linecap="round" stroke-linejoin="round"/>
<path d="M56.1875 28.875H39.3125V52.3125H56.1875V28.875Z" stroke="white" stroke-width="2" stroke-linecap="round" stroke-linejoin="round"/>
<path d="M50.5625 45.75V43.875" stroke="white" stroke-width="2" stroke-linecap="round" stroke-linejoin="round"/>
<path d="M50.5625 39.1875V37.3125" stroke="white" stroke-width="2" stroke-linecap="round" stroke-linejoin="round"/>
<path d="M47.75 7.3125C47.75 5.75859 49.0086 4.5 50.5625 4.5H51.5C53.0539 4.5 54.3125 3.24141 54.3125 1.6875" stroke="white" stroke-width="2" stroke-linecap="round" stroke-linejoin="round"/>
<path d="M44 28.875L45.875 11.0625H51.5L53.375 28.875" stroke="white" stroke-width="2" stroke-linecap="round" stroke-linejoin="round"/>
<path d="M51.9969 15.75H49.625" stroke="white" stroke-width="2" stroke-linecap="round" stroke-linejoin="round"/>
<path d="M39.3125 52.3125V7.3125L29 1.6875L18.6875 7.3125V52.3125H39.3125Z" stroke="white" stroke-width="2" stroke-linecap="round" stroke-linejoin="round"/>
<path d="M24.3125 12H26.1875" stroke="white" stroke-width="2" stroke-linecap="round" stroke-linejoin="round"/>
<path d="M31.8125 12H33.6875" stroke="white" stroke-width="2" stroke-linecap="round" stroke-linejoin="round"/>
<path d="M24.3125 17.625H26.1875" stroke="white" stroke-width="2" stroke-linecap="round" stroke-linejoin="round"/>
<path d="M31.8125 17.625H33.6875" stroke="white" stroke-width="2" stroke-linecap="round" stroke-linejoin="round"/>
<path d="M25.25 48.5625V47.625C25.25 45.5531 26.9281 43.875 29 43.875C31.0719 43.875 32.75 45.5531 32.75 47.625V52.3125" stroke="white" stroke-width="2" stroke-linecap="round" stroke-linejoin="round"/>
</svg>
