<svg width="56" height="56" viewBox="0 0 56 56" fill="none" xmlns="http://www.w3.org/2000/svg">
<path d="M28.002 1V9.28256C28.002 9.87274 28.6722 10.1995 29.1423 9.84606C30.296 8.97913 31.7865 8.52899 33.3803 8.72905C36.0178 9.05582 38.1251 11.1965 38.4185 13.8406C38.8053 17.3517 36.0678 20.3226 32.6367 20.3226C31.323 20.3226 30.1126 19.8892 29.139 19.1556C28.6688 18.8022 28.002 19.1356 28.002 19.7224V28.005" stroke="white" stroke-width="2.00062" stroke-miterlimit="10" stroke-linecap="round"/>
<path d="M54.9991 28.0016H46.7166C46.1264 28.0016 45.7996 28.6718 46.1531 29.1453C47.02 30.299 47.4702 31.7894 47.2701 33.3832C46.9433 36.0207 44.8027 38.128 42.1585 38.4215C38.6474 38.8083 35.6765 36.0707 35.6765 32.6397C35.6765 31.3259 36.11 30.1156 36.8435 29.1419C37.197 28.6751 36.8635 28.0049 36.2767 28.0049H27.9941" stroke="white" stroke-width="2.00062" stroke-miterlimit="10" stroke-linecap="round"/>
<path d="M28.0013 55V46.7174C28.0013 46.1273 27.3311 45.8005 26.8576 46.1539C25.7039 47.0209 24.2135 47.471 22.6197 47.2709C19.9822 46.9442 17.8749 44.8035 17.5814 42.1594C17.1946 38.6483 19.9322 35.6774 23.3632 35.6774C24.677 35.6774 25.8873 36.1108 26.861 36.8444C27.3311 37.1978 27.998 36.8644 27.998 36.2776V27.995" stroke="white" stroke-width="2.00062" stroke-miterlimit="10" stroke-linecap="round"/>
<path d="M1 28.0016H9.28256C9.87274 28.0016 10.1995 27.3314 9.84606 26.8579C8.97913 25.7042 8.52899 24.2138 8.72905 22.6199C9.05582 19.9824 11.1965 17.8751 13.8406 17.5817C17.3517 17.1949 20.3226 19.9324 20.3226 23.3635C20.3226 24.6772 19.8892 25.8876 19.1556 26.8612C18.8022 27.328 19.1356 27.9983 19.7224 27.9983H28.005" stroke="white" stroke-width="2.00062" stroke-miterlimit="10" stroke-linecap="round"/>
<path d="M52.1324 1H3.86755C2.28385 1 1 2.28385 1 3.86755V52.1324C1 53.7162 2.28385 55 3.86755 55H52.1324C53.7162 55 55 53.7162 55 52.1324V3.86755C55 2.28385 53.7162 1 52.1324 1Z" stroke="white" stroke-width="2.00062" stroke-miterlimit="10" stroke-linecap="round"/>
</svg>
