<svg width="67" height="66" viewBox="0 0 67 66" fill="none" xmlns="http://www.w3.org/2000/svg">
<path d="M34.5 10.3C35.1 10.3 35.5 9.9 35.5 9.3V1C35.5 0.4 35.1 0 34.5 0C33.9 0 33.5 0.4 33.5 1V9.3C33.5 9.9 33.9 10.3 34.5 10.3Z" fill="white"/>
<path d="M51.3001 17.2C51.6001 17.2 51.8001 17.2 52.0001 16.9L57.8001 11.1C58.2001 10.7 58.2001 10.1 57.8001 9.69999C57.4001 9.29999 56.8001 9.29999 56.4001 9.69999L50.6 15.5C50.2 15.9 50.2 16.5 50.6 16.9C51 17.3 51.1001 17.2 51.3001 17.2Z" fill="white"/>
<path d="M17 16.9C17.2 17.1 17.5 17.2 17.7 17.2C17.9 17.2 18.2 17.2 18.4 16.9C18.8 16.5 18.8 15.9 18.4 15.5L12.6 9.69999C12.2 9.29999 11.6 9.29999 11.2 9.69999C10.8 10.1 10.8 10.7 11.2 11.1L17 16.9Z" fill="white"/>
<path d="M24.5 11.4C24.7 11.8 25 12 25.4 12C25.8 12 25.7 12 25.8 12C26.3 11.8 26.6 11.2 26.3 10.7L24.7 6.9C24.5 6.4 23.9 6.1 23.4 6.4C22.9 6.7 22.6 7.2 22.9 7.7L24.5 11.5V11.4Z" fill="white"/>
<path d="M8.4 23.3L12.2 24.9C12.3 24.9 12.5 24.9 12.6 24.9C13 24.9 13.4 24.7 13.5 24.3C13.7 23.8 13.5 23.2 13 23L9.20001 21.4C8.70001 21.2 8.1 21.4 7.9 21.9C7.7 22.4 7.9 23 8.4 23.2V23.3Z" fill="white"/>
<path d="M43.2001 12C43.3001 12 43.5001 12 43.6001 12C44.0001 12 44.4001 11.8 44.5001 11.4L46.1001 7.6C46.3001 7.1 46.1001 6.5 45.6001 6.3C45.1001 6.1 44.5001 6.3 44.3001 6.8L42.7001 10.6C42.5001 11.1 42.7001 11.7 43.2001 11.9V12Z" fill="white"/>
<path d="M55.5 24.3C55.7 24.7 56 24.9 56.4 24.9C56.8 24.9 56.7 24.9 56.8 24.9L60.6 23.3C61.1 23.1 61.4 22.5 61.1 22C60.9 21.5 60.3 21.2 59.8 21.5L56 23.1C55.5 23.3 55.2 23.9 55.5 24.4V24.3Z" fill="white"/>
<path d="M17.8 27.7C17.9 27.7 18 27.7 18.2 27.7C18.6 27.7 19 27.5 19.1 27.1C21.5 20.7 27.7 16.4 34.6 16.4C41.5 16.4 47.7 20.7 50.1 27.1C50.3 27.6 50.9 27.9 51.4 27.7C51.9 27.5 52.2 26.9 52 26.4C49.3 19.2 42.3 14.4 34.6 14.4C26.9 14.4 19.9 19.2 17.2 26.4C17 26.9 17.2 27.5 17.8 27.7Z" fill="white"/>
<path d="M66.5 29.8C66.5 29.2 66 28.8 65.4 28.9C54.9 29.7 44.7 31.8 34.9 35.1C24.7 31.7 13.1 29.5 1.50002 28.9C1.00002 28.9 0.500024 29.3 0.400024 29.8C0.400024 30.4 0.800024 30.8 1.30002 30.9C11.8 31.5 22.3 33.3 31.7 36.2C20.6 40.2 10.2 45.8 0.800024 52.8C0.400024 53.1 0.300025 53.8 0.600025 54.2C0.800025 54.5 1.10002 54.6 1.40002 54.6C1.70002 54.6 1.80002 54.6 2.00002 54.4C20.3 40.8 42.2 32.7 65.5 30.9C66.1 30.9 66.5 30.4 66.4 29.8H66.5Z" fill="white"/>
<path d="M66.5 36.9C66.4 36.4 65.8 36 65.3 36.2C45.5 40.8 28.2 50 12.2 64.3C11.8 64.7 11.8 65.3 12.2 65.7C12.4 65.9 12.7 66 12.9 66C13.1 66 13.4 66 13.6 65.7C29.3 51.7 46.4 42.6 65.8 38.1C66.3 38 66.7 37.4 66.5 36.9Z" fill="white"/>
<path d="M65.2 45.5C54.8 49 44.6 55.7 36.5 64.3C36.1 64.7 36.1 65.3 36.5 65.7C36.7 65.9 36.9 66 37.2 66C37.5 66 37.7 65.9 37.9 65.7C45.8 57.2 55.7 50.7 65.8 47.4C66.3 47.2 66.6 46.7 66.4 46.1C66.2 45.6 65.7 45.3 65.1 45.5H65.2Z" fill="white"/>
</svg>
